<?xml version="1.0" standalone="no"?>
<!DOCTYPE svg PUBLIC "-//W3C//DTD SVG 1.1//EN" "http://www.w3.org/Graphics/SVG/1.1/DTD/svg11.dtd" >
<svg xmlns="http://www.w3.org/2000/svg">
<metadata>
Created by FontForge 20120731 at Sat Oct 22 15:32:52 2016
 By admin
</metadata>
<defs>
<font id="iconfont" horiz-adv-x="1024" >
  <font-face 
    font-family="iconfont"
    font-weight="500"
    font-stretch="normal"
    units-per-em="1024"
    panose-1="2 0 6 3 0 0 0 0 0 0"
    ascent="896"
    descent="-128"
    x-height="792"
    bbox="0 -224 1092.59 812.346"
    underline-thickness="50"
    underline-position="-100"
    unicode-range="U+0078-E642"
  />
<missing-glyph horiz-adv-x="374" 
d="M34 0v682h272v-682h-272zM68 34h204v614h-204v-614z" />
    <glyph glyph-name=".notdef" horiz-adv-x="374" 
d="M34 0v682h272v-682h-272zM68 34h204v614h-204v-614z" />
    <glyph glyph-name=".null" horiz-adv-x="0" 
 />
    <glyph glyph-name="nonmarkingreturn" horiz-adv-x="341" 
 />
    <glyph glyph-name="x" unicode="x" horiz-adv-x="1001" 
d="M281 543q-27 -1 -53 -1h-83q-18 0 -36.5 -6t-32.5 -18.5t-23 -32t-9 -45.5v-76h912v41q0 16 -0.5 30t-0.5 18q0 13 -5 29t-17 29.5t-31.5 22.5t-49.5 9h-133v-97h-438v97zM955 310v-52q0 -23 0.5 -52t0.5 -58t-10.5 -47.5t-26 -30t-33 -16t-31.5 -4.5q-14 -1 -29.5 -0.5
t-29.5 0.5h-32l-45 128h-439l-44 -128h-29h-34q-20 0 -45 1q-25 0 -41 9.5t-25.5 23t-13.5 29.5t-4 30v167h911zM163 247q-12 0 -21 -8.5t-9 -21.5t9 -21.5t21 -8.5q13 0 22 8.5t9 21.5t-9 21.5t-22 8.5zM316 123q-8 -26 -14 -48q-5 -19 -10.5 -37t-7.5 -25t-3 -15t1 -14.5
t9.5 -10.5t21.5 -4h37h67h81h80h64h36q23 0 34 12t2 38q-5 13 -9.5 30.5t-9.5 34.5q-5 19 -11 39h-368zM336 498v228q0 11 2.5 23t10 21.5t20.5 15.5t34 6h188q31 0 51.5 -14.5t20.5 -52.5v-227h-327z" />
    <glyph glyph-name="uniE600" unicode="&#xe600;" horiz-adv-x="1000" 
d="M718 14q-8 1 -13 15.5t-5.5 23.5t-0.5 14q6 6 15.5 17t27.5 43.5t23 64.5q16 0 26.5 20t9.5 45t-16 38q0 1 1.5 17.5t2 29.5t-1 35.5t-6.5 39.5t-17 37t-29 33t-45.5 21.5t-64.5 8.5t-64.5 -8.5t-45.5 -21.5t-29 -33t-17 -37t-6.5 -39.5t-1 -35.5t2 -29.5t1.5 -17.5
q-15 -13 -16 -38t9.5 -45t26.5 -20q5 -32 23 -64.5t27.5 -43.5t15.5 -17q0 -51 -19 -53q-25 -4 -69.5 -23t-93 -47t-84 -67.5t-35.5 -76.5h375h375q0 37 -35.5 76.5t-84 67.5t-93 47t-69.5 23zM336 -4q67 42 138 66q-29 42 -43 87q-23 19 -35 52t-9 68q3 24 14 44
q-12 129 51 200q34 38 86 54q-14 138 -163 138q-36 0 -64.5 -9t-45.5 -22t-29 -32.5t-17 -37t-6.5 -39.5t-1 -35.5t2 -29.5t1.5 -17q-15 -13 -16 -38t9.5 -45t26.5 -20q5 -32 22 -63.5t30 -47t14 -15.5q0 -50 -19 -53q-25 -4 -69.5 -23t-93 -47t-84 -67t-35.5 -76h322z" />
    <glyph glyph-name="uniE601" unicode="&#xe601;" 
d="M135 12l125 192h2v192q0 88 54 156.5t138 90.5v9q0 26 18.5 45t45 19t45.5 -19t19 -45v-9q84 -22 138 -90.5t54 -156.5v-192h3l125 -192h-767zM710 204v192q0 80 -56.5 136t-136 56t-135.5 -56t-56 -136v-192l-63 -128h511zM486 -52h64q13 0 22.5 -9.5t9.5 -22.5
t-9.5 -22.5t-22.5 -9.5h-64q-13 0 -22.5 9.5t-9.5 22.5t9.5 22.5t22.5 9.5z" />
    <glyph glyph-name="uniE602" unicode="&#xe602;" 
d="M864 -208h-628q-65 0 -111 46t-46 111v8q22 -8 39 -8q49 0 83.5 34.5t34.5 82.5v79q0 49 -34.5 83.5t-83.5 34.5q-17 0 -39 -8v94q22 -8 39 -8q49 0 83.5 34.5t34.5 83.5v78q0 49 -34.5 83.5t-83.5 34.5q-17 0 -39 -8v8q0 65 46 111t111 46h471v-785h-79v-78h79h78v78
v785h79q65 0 111 -46t46 -111v-706q0 -65 -46 -111t-111 -46zM157 498.5q0 -32.5 -23 -55.5t-55.5 -23t-55 23t-22.5 55.5t23 55.5t55.5 23t55 -23t22.5 -55.5zM79.5 184q32.5 0 55.5 -23t23 -55.5t-23 -55.5t-55.5 -23t-55.5 23t-23 55.5t23 55.5t55.5 23z" />
    <glyph glyph-name="uniE603" unicode="&#xe603;" 
d="M741 -25h-90l255 279h-441v93h441l-255 279h90l282 -325zM372 161h186v-279q0 -38 -27.5 -65.5t-65.5 -27.5h-372q-39 0 -66 27.5t-27 65.5v837q0 39 27 66t66 27h372q38 0 65.5 -27t27.5 -66v-279h-186v-279z" />
    <glyph glyph-name="uniE604" unicode="&#xe604;" 
d="M512 -212q-93 0 -177 35.5t-145 95.5t-97 143t-36 175q0 129 70 239q26 24 28.5 54t-12.5 56.5t-34.5 49.5t-35 36t-16.5 13q17 4 50.5 8t151.5 4.5t253 -12.5q93 0 177 -35.5t145 -95.5t97 -143t36 -174.5t-36 -174.5t-97 -143t-145 -95.5t-177 -35.5zM541 444
q-9 0 -11.5 -6t1 -17t9 -24.5t10 -33t4.5 -36.5q0 -16 -2 -33.5t-3.5 -26.5t-1 -17t5 -10.5t14.5 -2.5q28 0 45.5 22t17.5 68t-30 81.5t-59 35.5zM744 444q-10 0 -12.5 -6t1.5 -17t9 -24.5t9.5 -33t4.5 -36.5q0 -16 -2 -33.5t-3.5 -26.5t-1 -17t5 -10.5t14.5 -2.5
q28 0 45.5 22t17.5 68t-30 81.5t-58 35.5z" />
    <glyph glyph-name="uniE605" unicode="&#xe605;" horiz-adv-x="1118" 
d="M966 153q-16 -21 -26.5 -43t-16.5 -41t-9 -25q-52 -100 -167 -162.5t-257 -62.5q-125 0 -230.5 48.5t-167 132t-61.5 182.5q0 52 23.5 104t64 95.5t93.5 85t112 73.5t120 60.5t117 45.5t103.5 29.5t79.5 12t44 -6.5q16 -4 -2.5 -49.5t-38 -92t-6.5 -53.5q9 -5 47.5 6.5
t82.5 26t92 19t77 -15.5q2 -23 -22 -56.5t-52.5 -60t-49 -51.5t-13.5 -36q11 -16 41.5 -16t61.5 8.5t55.5 6.5t24.5 -22q0 -25 -13 -45.5t-30 -32t-40.5 -29.5t-36.5 -35zM496.5 242q-34.5 0 -77.5 2.5t-73 5t-62.5 3.5t-53.5 -3.5t-39.5 -14t-27 -28t-8.5 -47.5
q0 -50 27.5 -100.5t72.5 -90t109 -64t132.5 -24.5t132.5 24.5t109 64t72.5 90t27.5 100.5q0 29 -8.5 47.5t-27 28t-39.5 14t-53.5 3.5t-62.5 -3.5t-73 -5t-77.5 -2.5zM479.5 12q-46.5 0 -83 34t-36.5 68q0 12 5.5 19t18 8.5t24.5 1.5t34 -1.5t37 -1.5t37.5 1.5t34.5 1.5
t24.5 -1.5t18 -8.5t5.5 -19q0 -34 -36.5 -68t-83 -34z" />
    <glyph glyph-name="uniE606" unicode="&#xe606;" horiz-adv-x="1025" 
d="M867 -94h-709q-66 0 -112 46t-46 112v406l512 -277l512 277v-406q0 -66 -46 -112t-111 -46zM512 274l-511 277q6 60 50.5 101.5t106.5 41.5h709q61 0 105.5 -41.5t50.5 -101.5z" />
    <glyph glyph-name="uniE607" unicode="&#xe607;" 
d="M904 -50l5 -109l-118 61q-43 -9 -78 -9q-126 0 -215.5 74.5t-89.5 180t89.5 180t216 74.5t216 -74.5t89.5 -180.5q0 -58 -30.5 -109.5t-84.5 -87.5zM611.5 249q-21.5 0 -36.5 -15t-15 -36t15 -36t36.5 -15t36 15t14.5 36t-14.5 36t-36 15zM815 249q-21 0 -36 -15t-15 -36
t15 -36t36 -15t36 15t15 36t-15 36t-36 15zM357 147q0 -1 0.5 -3.5t0.5 -3.5q-1 0 -2.5 -0.5t-2.5 -0.5q-59 0 -120 20l-112 -58l5 112q-59 44 -92.5 105t-33.5 131q0 84 47 155.5t128.5 113t177.5 41.5q95 0 175.5 -41t128 -111.5t48.5 -154.5q-95 -2 -175 -43
t-126.5 -110.5t-46.5 -151.5zM255 555q-21 0 -36 -15t-15 -36t15 -36t36 -15t36 15t15 36t-15 36t-36 15zM510 504q0 21 -15 36t-36.5 15t-36 -15t-14.5 -36t14.5 -36t36 -15t36.5 15t15 36z" />
    <glyph glyph-name="uniE608" unicode="&#xe608;" 
d="M790 109q-6 3 -16 7.5t-33.5 10.5t-39.5 4q-28 -4 -58.5 -18t-47.5 -25t-17 -12q-13 -19 -22 -22t-20.5 -3t-17.5 2l-7 1q-4 12 -89 93q-37 35 -70 73.5t-49 59.5l-15 21q-3 4 -7 10.5t-10 21.5t-5 23q1 13 9.5 24t15.5 16l8 4l6 6q4 4 14 15.5t17.5 23.5t13 30t5.5 35
q-2 29 -18.5 65t-32.5 57l-16 21q-1 3 -2.5 7t-7 14.5t-13.5 19t-23 16t-32 9.5q-28 3 -56 -8t-42 -23l-14 -13q-8 -6 -21 -17t-37.5 -40t-30.5 -53q-10 -45 -7.5 -86.5t10.5 -70.5l8 -30q47 -86 112 -176t189 -220q38 -39 69.5 -68t48.5 -41.5t29.5 -19.5t15.5 -7.5t5 -0.5
q4 -3 13 -7.5t35 -15.5t51.5 -19t59.5 -12.5t64 -0.5q28 4 58 16.5t52.5 28t41 30.5t28 24.5t9.5 10.5l5 8q3 4 9.5 18t10.5 26.5t4 29t-6 28.5q-9 16 -26 32.5t-35 28t-35 20.5t-28 13zM729 237h102q-2 116 -53 202t-136 131.5t-194 49.5v-102q127 -5 204.5 -77t76.5 -204z
M544 812q-49 0 -96 -10v-99q52 13 96 13q104 0 192 -51t139.5 -139.5t51.5 -192.5q0 -43 -14 -96h100q10 48 10 96q0 98 -38 186.5t-102 152.5t-153 102t-186 38z" />
    <glyph glyph-name="uniE609" unicode="&#xe609;" horiz-adv-x="1026" 
d="M911 -99q-47 0 -80.5 33.5t-33.5 80.5v114q0 31 15.5 57t41.5 41v16q0 93 -45.5 171.5t-124.5 124.5t-171.5 46t-171.5 -46t-124.5 -124.5t-45.5 -171.5v-16q26 -15 41.5 -41t15.5 -57v-114q0 -47 -33.5 -80.5t-80.5 -33.5t-80.5 33.5t-33.5 80.5v114q0 31 15.5 57
t41.5 41v16q0 93 36 177t97 145t145.5 97.5t177 36.5t177 -36.5t145.5 -97.5t97 -145t36 -177v-16q26 -15 41.5 -41t15.5 -57v-114q0 -47 -33.5 -80.5t-80.5 -33.5z" />
    <glyph glyph-name="uniE60A" unicode="&#xe60a;" 
d="M835 576l-60 63l-263 -275v0l-263 275l-60 -63l262 -276l-262 -276l60 -63l263 275v0l263 -275l60 63l-262 276z" />
    <glyph glyph-name="uniE60B" unicode="&#xe60b;" 
d="M287 -208v19l453 491l-453 491v19l472 -510z" />
    <glyph glyph-name="uniE60C" unicode="&#xe60c;" 
d="M748 812v-19l-453 -491l453 -491v-19l-472 510z" />
    <glyph glyph-name="uniE60D" unicode="&#xe60d;" 
d="M209 -212l512 512l-512 512h128l512 -512l-512 -512h-128z" />
    <glyph glyph-name="uniE60E" unicode="&#xe60e;" horiz-adv-x="1025" 
d="M948 810h-869q-32 0 -54.5 -22t-22.5 -54v-869q0 -32 22.5 -54.5t54.5 -22.5h869q31 0 53.5 22.5t22.5 54.5v869q0 32 -22.5 54t-53.5 22zM999 -135q0 -21 -15 -36t-36 -15h-869q-22 0 -37 15t-15 36v869q0 21 15 36t37 15h869q21 0 36 -15t15 -36v-869zM257 171l26 -25
l230 230l230 -230l26 25l-256 256z" />
    <glyph glyph-name="uniE60F" unicode="&#xe60f;" 
d="M981 118q-6 34 -20 68t-27.5 56.5t-30 42.5t-22.5 26.5t-10 9.5q3 33 1 56.5t-7.5 38t-11.5 23t-11 10.5l-5 3q-2 71 -20.5 127.5t-44 91t-60.5 59.5t-64 36.5t-60.5 17.5t-43.5 6.5t-19 0.5q-8 0 -19.5 -0.5t-43 -6.5t-60.5 -17.5t-64 -36.5t-61 -59.5t-44.5 -91
t-20.5 -127.5q-2 0 -4.5 -2.5t-10.5 -11.5t-12 -22.5t-8 -38t1 -56.5l-9 -9q-6 -6 -22.5 -26.5t-30.5 -43t-27.5 -56.5t-19.5 -68q-1 -4 -1 -11.5t1 -25.5t4 -31t10 -23.5t17.5 -9t28.5 19.5t41 55q26 -69 72 -131q-4 -1 -9.5 -3.5t-19.5 -11t-24 -19.5t-17.5 -29t-5.5 -38
q0 -4 1 -9.5t10 -19t25.5 -24t53.5 -18t87 -6.5q5 1 14 2t33 5.5t44 11t41.5 18.5t32.5 27h17h17q16 -24 57.5 -40t74.5 -20l32 -4q51 -1 87.5 6t53 18.5t26 23.5t10.5 20l1 9q2 20 -5.5 38t-19 29t-23 19.5t-20.5 11.5l-8 3q20 28 38 60.5t26 51.5l7 19q23 -37 41 -55.5
t28.5 -18.5t18 8.5t10 24t4 30.5t0.5 26v11z" />
    <glyph glyph-name="uniE610" unicode="&#xe610;" 
d="M975 124l-448 448l-449 -449v-118h1l448 448l448 -448v119z" />
    <glyph glyph-name="uniE611" unicode="&#xe611;" 
d="M887 195l-353 350l-1 1h-1v1q-10 9 -23 9t-22 -10l-350 -353q-10 -9 -10 -22.5t9.5 -22.5t23 -9t22.5 9l328 331l332 -330q10 -9 23 -9t22.5 9.5t9.5 23t-10 22.5z" />
    <glyph glyph-name="uniE612" unicode="&#xe612;" 
d="M521 58h-21q-92 0 -158 59q-65 60 -65 144v316q0 84 65 144q66 59 158 59h21q92 0 157 -59q66 -60 66 -144v-316q0 -84 -66 -144q-65 -59 -157 -59zM500 765q-86 0 -147 -55t-61 -133v-316q0 -78 61 -133t147 -55h21q86 0 147 55t61 133v316q0 78 -61 133t-147 55h-21z
M511.5 399q-7.5 0 -7.5 8v272q0 8 7.5 8t7.5 -8v-272q0 -8 -7.5 -8zM570 -18l-10 11l-56 -56l-55 56l-11 -11l66 -66v0zM571 -119l-10 11l-56 -56l-55 55l-11 -10l66 -67v1z" />
    <glyph glyph-name="uniE613" unicode="&#xe613;" horiz-adv-x="1000" 
d="M821 345h-278v278q0 18 -12.5 30.5t-30.5 12.5t-30.5 -12.5t-12.5 -30.5v-278h-278q-18 0 -30.5 -12.5t-12.5 -30.5t12.5 -31t30.5 -13h278v-277q0 -18 12.5 -31t30.5 -13t30.5 13t12.5 31v277h278q18 0 30.5 13t12.5 31t-12.5 30.5t-30.5 12.5z" />
    <glyph glyph-name="uniE614" unicode="&#xe614;" 
d="M512 209q-38 0 -64.5 26.5t-26.5 64.5t26.5 64.5t64.5 26.5t64.5 -26.5t26.5 -64.5t-26.5 -64.5t-64.5 -26.5zM512 369q-29 0 -49 -20t-20 -49t20 -49t49 -20t49 20t20 49t-20 49t-49 20zM512 -31q-55 0 -111 18t-101 44t-90 62.5t-75 67t-58 64t-38 47t-16 22.5
q-4 6 0 12q6 9 16 22.5t38 47t58 64.5t75 67t90 62t101 44t111 18t111 -18t101 -44t90 -62.5t75 -66.5t58 -64t38 -47.5t16 -22.5q4 -6 0 -12q-6 -9 -16 -22.5t-38 -47t-58 -64t-75 -67t-90 -62.5t-101 -44t-111 -18zM45 300q17 -23 38.5 -50t71 -76.5t100.5 -87
t120.5 -66.5t136.5 -29t136.5 29t120.5 66.5t100.5 87t71 76.5t38.5 50q-17 23 -38.5 50t-71 76.5t-100.5 87t-120.5 66.5t-136.5 29t-136.5 -29t-120.5 -66.5t-100.5 -87t-71 -76.5t-38.5 -50zM512 89q-87 0 -149 62t-62 149t62 149t149 62t149 -62t62 -149t-62 -149
t-149 -62zM512 489q-78 0 -133.5 -55.5t-55.5 -133.5t55.5 -133.5t133.5 -55.5t133.5 55.5t55.5 133.5t-55.5 133.5t-133.5 55.5z" />
    <glyph glyph-name="uniE615" unicode="&#xe615;" 
d="M854 45q-36 56 -89 98t-117 64q-12 5 -25 8q40 19 71 51q76 75 76 181.5t-75.5 181.5t-182 75t-181.5 -75t-75 -181.5t75 -181.5q31 -31 70 -50q-13 -4 -26 -9q-64 -22 -117 -65q-53 -41 -89 -98q-37 -57 -54 -124l40 -9q30 121 128 199q48 38 106 59q59 21 122.5 21
t122.5 -21q58 -20 106 -58q98 -79 128 -200l40 10q-17 66 -54 124zM297 447.5q0 89.5 63 152.5t152.5 63t153 -63t63.5 -152.5t-63.5 -153t-153 -63.5t-152.5 63.5t-63 153z" />
    <glyph glyph-name="uniE616" unicode="&#xe616;" horiz-adv-x="1066" 
d="M942 812h-819q-51 0 -87 -36t-36 -87v-655q0 -51 36 -87t87 -36h270l111 -111q12 -12 28.5 -12t28.5 12l111 111h270q51 0 87 36t36 87v655q0 51 -36 87t-87 36zM307 320q-25 0 -43 18.5t-18 43.5t18 43t43.5 18t43.5 -18t18 -43t-18 -43.5t-44 -18.5zM553 320
q-25 0 -43 18.5t-18 43.5t18 43t43 18t43 -18t18 -43t-18 -43.5t-43 -18.5zM799 320q-26 0 -44 18.5t-18 43.5t18 43t43.5 18t43.5 -18t18 -43t-18 -43.5t-43 -18.5zM799 320z" />
    <glyph glyph-name="uniE617" unicode="&#xe617;" 
d="M737 653q-9 5 -19.5 2t-16 -12t-2 -19.5t12.5 -15.5q104 -53 164.5 -149.5t60.5 -209.5q0 -110 -57 -204t-155 -149t-213 -55t-213 55t-155 149t-57 204q0 113 61 210t165 150q10 5 13 15t-2 19.5t-15.5 12.5t-20.5 -2q-117 -60 -185.5 -169t-68.5 -236q0 -93 38 -178
t102 -146.5t152.5 -97.5t185.5 -36t185.5 36t152.5 97.5t102 146.5t38 178q0 127 -68 235.5t-185 168.5zM512 224q11 0 19 7t8 18v535q0 11 -8 18t-19 7t-19 -7t-8 -18v-535q0 -11 8 -18t19 -7z" />
    <glyph glyph-name="uniE618" unicode="&#xe618;" 
d="M637.5 748q-104.5 0 -178 -74t-73.5 -178q0 -92 62 -164q-14 1 -23 -8l-282 -284q-9 -8 -9 -19.5t9 -19.5v-1v0l138 -140q8 -8 19.5 -8t19.5 8t8 20t-8 20l-118 120l72 73l119 -121q8 -8 19.5 -8t19.5 8t8 19.5t-8 20.5l-119 121l151 151q9 9 8 23q72 -64 166 -64
q104 0 178 74t74 178.5t-74 178.5t-178.5 74zM638 300q-81 0 -138.5 57.5t-57.5 138.5t57.5 138.5t138.5 57.5t138.5 -57.5t57.5 -138.5t-57.5 -138.5t-138.5 -57.5z" />
    <glyph glyph-name="uniE619" unicode="&#xe619;" 
d="M882 388h-294l1 284v0v5h-1q-2 30 -24.5 51t-53 21t-53 -20.5t-23.5 -50.5h-1v-290h-294q-32 0 -54.5 -22.5t-22 -54.5t23 -55t54.5 -23h293v-298q0 -32 23 -55t55 -23t54 22.5t22 54.5l1 299l295 1q32 -1 54.5 21.5t22 54.5t-23 54.5t-54.5 23.5z" />
    <glyph glyph-name="uniE61A" unicode="&#xe61a;" 
d="M332 348l144 -160q15 -16 36 -16t36 16l144 160q12 14 12 32q0 20 -14 34t-34 14q-21 0 -36 -16l-60 -67v291q0 20 -14 34t-34 14t-34 -14t-14 -34v-291l-60 67q-15 16 -36 16q-20 0 -34 -14t-14 -34q0 -18 12 -32zM880 252q-20 0 -34 -14t-14 -34v-192h-640v192
q0 20 -14 34t-34 14t-34 -14t-14 -34v-240q0 -20 14 -34t34 -14h368v0h368q20 0 34 14t14 34v240q0 20 -14 34t-34 14z" />
    <glyph glyph-name="uniE61B" unicode="&#xe61b;" 
d="M513 807q-103 0 -196.5 -40.5t-161.5 -108t-108 -161.5t-40 -196.5t40 -196.5t108 -161.5t161.5 -107.5t196.5 -40t196.5 40t161 107.5t107.5 161.5t40 196.5t-40 196.5t-107.5 161.5t-161 108t-196.5 40.5zM512.5 -107q-110.5 0 -204.5 54.5t-148.5 148.5t-54.5 204.5
t54.5 204.5t148.5 149t204.5 55t204.5 -55t148.5 -149t54.5 -204.5t-54.5 -204.5t-148.5 -148.5t-204.5 -54.5zM555 324v314h-95v-413h396v99h-301z" />
    <glyph glyph-name="uniE61C" unicode="&#xe61c;" 
d="M390 312l-263 255v-525q2 5 6 9zM630 319l263 -268q2 -2 4 -5q0 528 -1 531zM822 588h-635l317 -295zM586 288l-64 -47q-7 -4 -15 -4q-5 0 -10 2q-7 0 -13 4l-52 38l-263 -267q0 -1 -1 -2h689l-2 2z" />
    <glyph glyph-name="uniE61D" unicode="&#xe61d;" 
d="M674 277q45 40 71 97t26 123q0 117 -77.5 200.5t-186.5 83.5t-186 -83.5t-77 -200.5q0 -119 78 -202q8 -7 22 -18.5t52.5 -30.5t78 -26.5t94.5 5t105 52.5zM851 80l-143 131q-20 -17 -43.5 -31t-65.5 -27t-85.5 -14t-103 17t-119.5 58q-24 -19 -48.5 -39.5t-58.5 -54
t-58 -63.5t-39 -64.5t-10 -61.5q1 -4 2 -11t11.5 -24t27.5 -30.5t54.5 -25t87.5 -13.5q22 -1 58.5 -3t133 -4t175.5 1.5t154.5 18t100.5 40.5q36 25 35 72q0 57 -66 128z" />
    <glyph glyph-name="uniE61E" unicode="&#xe61e;" 
d="M885 515h-746q-31 0 -53 -22t-22 -52v-213q0 -31 22 -53t53 -22h124h508l141 -68l-31 68h4q31 0 53 22t22 53v213q0 30 -22 52t-53 22zM381.5 392.5q-1.5 -35.5 -1.5 -53.5q0 -17 1 -50v-51q0 -5 -4 -5q-2 0 -6.5 0.5t-7 0.5t-7.5 -0.5t-8 -0.5t-7 5q-33 45 -101 134
q-10 14 -12 15q-1 0 -1 -6v-71q1 -48 1 -72q0 -5 -3 -5q-2 0 -7.5 0.5t-8.5 0.5t-8.5 -0.5t-7.5 -0.5q-4 0 -4 3q0 17 1.5 51.5t1.5 51.5q0 18 -1 67q-1 13 -2 38v2q0 2 4 2q10 0 15 1q3 0 9 1q5 1 8 1q1 0 4 -4q36 -49 109 -145q3 -4 6 -7q1 6 1 29q0 20 -1.5 60.5
t-1.5 59.5q0 6 3 6t8.5 -0.5t8.5 -0.5t9 0.5t9 0.5t3 -4q0 -18 -1.5 -53.5zM560 257q-1 -6 -1 -7q-1 -6 -3 -16q0 -3 -4 -3q-1 0 -5 1q-19 2 -59 2q-11 0 -34 -0.5t-34 -0.5q-5 0 -5 5q0 17 2 51.5t2 51.5q0 18 -2 66q0 12 -2 37v2q0 4 4 4q11 0 32.5 -1t32.5 -1
q10 0 30.5 1t31.5 1q7 0 8 -5q3 -20 3 -25q0 -4 -4 -4q-13 0 -39.5 1.5t-39.5 1.5t-16.5 -3.5t-3.5 -16.5v-23q0 -9 1 -11q1 -5 8 -5h5h5q31 0 55 1q9 1 22 2q3 0 3 -3q0 -5 -1 -15t-1 -15q0 -3 -5 -3q-2 0 -14 1q-8 1 -38 1q-26 0 -33 -1q-6 0 -7 -6v-12v-23q0 -16 5 -20
q4 -3 20 -3h17q10 0 60 4h2q4 0 4 -4q0 -2 -2 -7zM743 237q-12 27 -33 85q-11 -29 -33 -85q-2 -4 -5 -4h-27q-3 0 -5 4q-10 23 -32 68q-29 61 -29 66q0 12 0.5 37.5t0.5 38.5q0 3 4 3q3 0 8.5 -0.5t8.5 -0.5h8h8q3 0 3 -2q0 -13 -1.5 -38t-1.5 -37q0 -8 31 -72
q11 -21 12 -21v1q2 4 8 20q11 30 23 68v25v27q-1 18 -1 27q0 3 4 3q3 0 8.5 -0.5t8.5 -0.5t8 0.5t8 0.5q4 0 4 -3q0 -10 -1 -29.5t-1 -28.5q0 -16 1 -20q0 -7 23 -67q2 -7 8 -20v-1q1 0 11 21q31 62 31 70q0 12 -1.5 37.5t-1.5 37.5q0 3 1 3q3 0 9.5 -0.5t9.5 -0.5
q2 0 8 0.5t9 0.5t3 -2v-5q0 -12 1 -36t1 -36q0 -2 -31 -66q-10 -23 -31 -68q-2 -4 -5 -4h-27q-3 0 -5 4z" />
    <glyph glyph-name="uniE61F" unicode="&#xe61f;" 
d="M576 288l-448 -448v896zM640 736h256v-896h-256v896z" />
    <glyph glyph-name="uniE620" unicode="&#xe620;" 
d="M980 407l-406 321q-26 21 -62 21t-62 -21l-406 -321q-10 -8 -11.5 -21t6.5 -23.5t21 -12t23 6.5l13 11v-388q0 -40 34.5 -68t74.5 -28h640q37 0 60 26.5t23 69.5v386l12 -9q8 -7 20 -7q15 0 25 12q8 11 6.5 24t-11.5 21zM480 -52v177q0 14 32 14t32 -14v-177h-64z
M864 -20q0 -32 -19 -32h-236h-1v1v176q0 31 -25 54.5t-71 23.5t-71 -23.5t-25 -54.5v-176v-1h1h-212q-15 0 -30 10.5t-15 21.5v438l329 260q9 7 22.5 7t22.5 -7l330 -261v-437z" />
    <glyph glyph-name="uniE621" unicode="&#xe621;" 
d="M714 121l-592 61l26 252l16 -1l11 44l-77 8l-34 -343l700 -71l5 56l-52 17zM545 62l-27 1l5 -20l25 7zM251 -42l-33 122l-57 3l50 -183l541 150l-142 8zM432 159l6 63l41 -4l-94 29l-27 3l-2 -19l57 -6l-7 -63zM301 704l-125 -322l656 -257l124 322zM798 187l-555 218
l92 236l554 -217zM657 505l-85 -75l-11 113l-28 11l16 -118l-43 17l-7 -19l53 -20l-11 -27l-52 20l-7 -18l52 -21l-23 -59l25 -9l23 59l53 -21l7 18l-53 21l10 27l53 -21l7 19l-42 16l90 77z" />
    <glyph glyph-name="uniE622" unicode="&#xe622;" 
d="M511.5 -161q-91.5 0 -174.5 35q-81 34 -143 96.5t-96 142.5q-36 84 -36 175.5t36 174.5q34 81 96 143t143 96q83 36 174.5 36t175.5 -36q80 -34 142.5 -96t96.5 -143q35 -83 35 -174.5t-35 -175.5q-34 -80 -96.5 -142.5t-142.5 -96.5q-84 -35 -175.5 -35zM511.5 678
q-79.5 0 -151.5 -30q-70 -30 -124 -84t-84 -124q-30 -72 -30 -151.5t30 -152.5q30 -70 84 -124t124 -83q72 -31 151.5 -31t152.5 31q70 29 123.5 83t83.5 124q31 73 31 152.5t-31 151.5q-30 70 -83.5 124t-123.5 84q-73 30 -152.5 30zM511.5 318q-12.5 0 -20.5 9l-180 180
q-9 9 -9 21t9 21t21 9t21 -9l180 -180q8 -8 8 -20.5t-8.5 -21.5t-21 -9zM511.5 318q-12.5 0 -21 9t-8.5 21.5t9 20.5l180 180q8 9 20.5 9t21 -9t8.5 -21t-8 -21l-180 -180q-9 -9 -21.5 -9zM692 318h-360q-12 0 -21 9t-9 21.5t9 21t21 8.5h360q12 0 20.5 -8.5t8.5 -21
t-8.5 -21.5t-20.5 -9zM692 199h-360q-12 0 -21 8.5t-9 21t9 21t21 8.5h360q12 0 20.5 -8.5t8.5 -21t-8.5 -21t-20.5 -8.5zM512 -41q-13 0 -21.5 8.5t-8.5 20.5v360q0 13 8.5 21.5t21 8.5t21 -8.5t8.5 -21.5v-360q0 -12 -8.5 -20.5t-20.5 -8.5z" />
    <glyph glyph-name="uniE623" unicode="&#xe623;" horiz-adv-x="1000" 
d="M844 548v138h-829v-645h138v-92h860v599h-169zM138 548v-445h-61v522h706v-77h-645zM952 302h-737v108h737v-108z" />
    <glyph glyph-name="uniE624" unicode="&#xe624;" 
d="M722 0.5q0 37.5 26 63.5t63.5 26t64 -26t26.5 -63.5t-26.5 -64t-64 -26.5t-63.5 26.5t-26 64zM572 599.5q0 37.5 26.5 64t63.5 26.5t63.5 -26.5t26.5 -64t-26.5 -63.5t-63.5 -26t-63.5 26t-26.5 63.5zM122 135q0 62 44 106t106 44t106 -44t44 -106t-44 -106t-106 -44
t-106 44t-44 106zM62 135q0 -87 61.5 -148.5t148.5 -61.5q61 0 111.5 32t76.5 84l202 -35v-6q0 -62 44 -106t106 -44t106 44t44 106t-44 106t-106 44q-45 0 -81.5 -23.5t-54.5 -62.5l-197 35q3 18 3 36q0 82 -55 142l182 182q25 -9 53 -9q62 0 106 44t44 106t-44 106
t-106 44t-106 -44t-44 -106q0 -63 45 -107l-177 -178q-50 30 -108 30q-87 0 -148.5 -61.5t-61.5 -148.5z" />
    <glyph glyph-name="uniE625" unicode="&#xe625;" 
d="M832 460q0 87 -43 160.5t-116.5 116.5t-160.5 43t-160.5 -43t-116.5 -116.5t-43 -160.5q0 -105 66 -192h-2l256 -448l256 448h-1q65 87 65 192zM512 332q-53 0 -90.5 37.5t-37.5 90.5t37.5 90.5t90.5 37.5t90.5 -37.5t37.5 -90.5t-37.5 -90.5t-90.5 -37.5z" />
    <glyph glyph-name="uniE626" unicode="&#xe626;" 
d="M980 381l-422 383q-2 2 -8.5 7t-10.5 8t-10 5.5t-12 2.5h-7q-7 0 -14 -4.5t-15.5 -12t-11.5 -10.5l-426 -379q-64 -50 -31 -88q7 -8 9.5 -10.5t13 -5t30.5 -2.5h76v-367q0 -48 23.5 -71.5t65.5 -23.5h91h53v324q0 47 49 47h184q45 0 45 -48v-322l41 -1h104q43 0 66 23.5
t23 66.5v372h74q30 0 36 1.5t15 10.5q19 19 9.5 46.5t-40.5 47.5z" />
    <glyph glyph-name="uniE627" unicode="&#xe627;" 
d="M586 581q-22 -21 -231 -241q-17 -16 -17 -40t17 -40q209 -220 231 -241q16 -16 40.5 -16t41.5 16q18 17 18 38.5t-18 42.5l-192 200l192 200q18 21 18 42.5t-18 38.5q-17 16 -41.5 16t-40.5 -16z" />
    <glyph glyph-name="uniE628" unicode="&#xe628;" 
d="M438 581q10 -10 67.5 -70t110.5 -115l53 -56q17 -16 17 -40t-17 -40q-209 -220 -231 -241q-16 -16 -40.5 -16t-41.5 16q-18 17 -18 38.5t18 42.5l192 200l-192 200q-18 21 -18 42.5t18 38.5q17 16 41.5 16t40.5 -16z" />
    <glyph glyph-name="uniE629" unicode="&#xe629;" 
d="M320 20q3 94 41.5 178.5t101.5 146t149.5 97.5t180.5 36h13v102h-17q-115 0 -220 -44t-181.5 -119t-122 -179t-47.5 -218h102zM431 20h85q0 116 82.5 198t198.5 82h9v85h-4h-5q-99 0 -183.5 -49t-133.5 -133t-49 -183zM636 20h85h8h77v67v35v59h-9q-67 0 -114 -47
t-47 -114z" />
    <glyph glyph-name="uniE62A" unicode="&#xe62a;" 
d="M836 744q-56 0 -96 -40t-40 -97q0 -19 5 -38l-399 -167q-18 31 -49.5 50t-68.5 19q-57 0 -97 -40t-40 -96.5t40 -96.5t97 -40q59 0 100 43l257 -184q-16 -30 -16 -64q0 -57 40 -97t96.5 -40t96.5 40t40 96.5t-40 96.5t-96 40q-61 0 -102 -45l-256 185q16 30 16 65
q0 18 -5 37l400 167q18 -31 49 -49t68 -18q57 0 97 40t40 96.5t-40 96.5t-97 40zM665.5 95q42.5 0 72.5 -30t30 -72t-30 -72t-72.5 -30t-72.5 30t-30 72t30 72t72.5 30zM188 232q-42 0 -72 30t-30 72t30 72t72 30t72 -30t30 -72t-30 -72t-72 -30zM836 505q-42 0 -72 30
t-30 72t30 72t72 30t72 -30t30 -72t-30 -72t-72 -30z" />
    <glyph glyph-name="uniE62B" unicode="&#xe62b;" 
d="M512 179q205 198 243 234t82 79q27 27 49 5t-6 -50q-339 -336 -340 -337q-16 -17 -28.5 -16.5t-29.5 17.5q-61 60 -174.5 173t-163.5 162q-28 28 -7 50q21 24 51 -5q96 -93 299 -289q1 -1 25 -23z" />
    <glyph glyph-name="uniE62C" unicode="&#xe62c;" 
d="M913 144l-256 -256q-27 -27 -65 -27t-65 27l-413 413q-30 30 -27 73l18 238q3 32 27.5 57t57.5 27l238 19q42 3 72 -27l413 -413q27 -27 27 -65.5t-27 -64.5v-1zM158 644q-15 -15 -16 -35l-19 -238q-2 -26 16 -44l414 -413q16 -16 39 -16t39 16l257 256q16 16 16 39.5
t-16 39.5l-414 413q-18 18 -43 16l-238 -18q-21 -2 -35 -16zM364 437q-21 -21 -51.5 -21t-51.5 21.5t-21 51.5t21 51.5t51.5 21.5t51.5 -21.5t21 -51.5t-21 -52zM286.5 514.5q-10.5 -10.5 -10.5 -25.5t10.5 -25.5t26 -10.5t25.5 10q11 11 11 26t-10.5 25.5t-26 10.5
t-26 -10.5z" />
    <glyph glyph-name="uniE62D" unicode="&#xe62d;" 
d="M282 792l629 -363q36 -21 55 -56.5t19 -72.5t-19 -72.5t-55 -56.5l-629 -363q-37 -23 -76.5 -20t-72 20.5t-53.5 52t-21 76.5v726q0 42 21 76.5t53.5 52t72 20.5t76.5 -20z" />
    <glyph glyph-name="uniE62E" unicode="&#xe62e;" 
d="M660 -60q7 0 -3 -15.5t-30 -34t-47 -34t-58 -15.5q-27 0 -53 15.5t-45.5 34t-29.5 34t-6 15.5h272zM914 27q8 -10 7.5 -18.5t-5 -14.5t-10.5 -9.5t-12 -3.5h-748q-14 0 -20.5 11.5t4.5 28.5q17 31 41 69t45 81.5t36 92t15 102.5q0 51 14.5 92t37.5 71.5t53 52t63 32.5
q-16 27 -16 56q0 42 28.5 70.5t70.5 28.5t70.5 -28.5t28.5 -70.5q0 -15 -4 -28.5t-11 -25.5q35 -11 66 -32.5t54 -53t37 -72.5t14 -91q0 -52 15.5 -101.5t37 -94t45.5 -81.5t43 -63zM478 670q0 -17 11.5 -28.5t27.5 -11.5h2q17 1 28 12t11 28t-11 28.5t-28.5 11.5t-29 -11.5
t-11.5 -28.5z" />
    <glyph glyph-name="uniE62F" unicode="&#xe62f;" 
d="M704 171v246q0 84 -60 144.5t-145 60.5t-145 -60.5t-60 -144.5v-246q0 -85 60 -145t145 -60t145 60t60 145zM335 171v246q0 67 48 115.5t116 48.5t116 -48.5t48 -115.5v-246q0 -68 -48 -116t-116 -48t-116 48t-48 116zM553 392v62q0 21 -15 36t-36.5 15t-36.5 -15
t-15 -36v-62q0 -21 15 -36t36.5 -15t36.5 15t15 36zM491 392v62q0 4 3 7t7.5 3t7.5 -3t3 -7v-62q0 -4 -3 -7t-7.5 -3t-7.5 3t-3 7z" />
    <glyph glyph-name="uniE630" unicode="&#xe630;" 
d="M1003 19q-2 0 -5 -2l-2 -1v3h-21q6 15 6 30v536q0 31 -21.5 52.5t-51.5 21.5h-792q-30 0 -51.5 -21.5t-21.5 -52.5v-536q0 -15 6 -30h-21v-3l-2 2q-3 1 -5 1q-9 0 -15 -6.5t-6 -15t6 -15t15 -6.5q2 0 5 2l2 1v-3h84q1 0 2 -0.5t2 -0.5h792q1 0 2 1h1h85v3l2 -1q3 -2 5 -2
q8 0 14.5 6.5t6.5 15t-6 15t-15 6.5zM939 49q0 -12 -7.5 -20.5t-19.5 -9.5h-599q8 0 14.5 6t6.5 15t-6.5 15t-14.5 6h-172q-8 0 -14.5 -6t-6.5 -15t6.5 -15t14.5 -6h-29q-12 1 -19.5 9.5t-7.5 20.5v536q0 13 9 22t22 9h792q13 0 22 -9t9 -22v-536zM410 406l-2 -6
q-3 -8 4 -11h3q6 0 8 5l2 6q3 8 -4.5 11.5t-10.5 -5.5zM400 379l-37 -121q-3 -8 4 -11q2 -1 3 -1q6 0 8 6l37 120q3 8 -5 11q-7 4 -10 -4zM388.5 472q-7.5 3 -10.5 -5l-48 -150q-3 -8 5 -11h3q5 0 7 5l48 150q3 8 -4.5 11zM319 288l-5 -14q-2 -8 5 -11q2 -1 3 -1q5 0 8 6
l4 13q3 8 -4.5 11.5t-10.5 -4.5z" />
    <glyph glyph-name="uniE631" unicode="&#xe631;" 
d="M738 163l46 45l-272 272l-272 -272l46 -45l226 226z" />
    <glyph glyph-name="uniE632" unicode="&#xe632;" 
d="M286 413l-46 -45l272 -272l272 272l-46 45l-226 -226z" />
    <glyph glyph-name="uniE633" unicode="&#xe633;" horiz-adv-x="1025" 
d="M540.5 358q17.5 -18 17.5 -43.5t-17.5 -43.5t-42 -18t-42 18t-17.5 43.5t17.5 43.5t42 18t42 -18zM1006 54l-254 -260q-17 -18 -42 -18t-43 18l-507 521v0l105 108l-51 34l-54 -55l54 55l-214 145l30 53l227 -154l92 -61l-21 -37l1 -1l-5 -6l-5 -9l-3 1l-71 -73l422 -434
q18 -18 43 -18t42 18l169 173q18 18 18 43.5t-18 43.5l-423 434l-84 -87l-17 18l11 -24l-46 -26l-154 318l47 25l125 -259l118 122l508 -521q17 -18 17 -43.5t-17 -43.5z" />
    <glyph glyph-name="uniE634" unicode="&#xe634;" horiz-adv-x="1093" 
d="M1092 314q1 -8 -1 -15l-98 -425q-2 -7 -7 -14q-17 -32 -48 -52q-32 -20 -72 -20l-632 1q-3 -1 -6.5 -1t-6.5 1h-168q-5 -1 -7 -1q-19 0 -32.5 13t-13.5 32v534q0 18 13.5 31t32.5 13h5h152v1q104 7 177 81.5t76 177.5q-1 7 -1 11q0 54 39 92t93 38q47 0 83 -28.5
t46 -71.5h1q11 -51 11 -102q0 -80 -26 -154h254q3 0 7 -1q33 -1 62 -17t48 -45q23 -36 19 -79zM91 -122h91v444h-91v-444zM996 347q-14 21 -40 20v0h-321q-19 0 -32.5 13t-13.5 32q0 10 5 19v1q27 50 38 107h1q1 3 2 8t2.5 23.5t1.5 38.5q0 16 -1.5 33.5t-3.5 27.5l-2 9v1v1
q0 17 -12.5 29.5t-30 12.5t-30 -12.5t-12.5 -29.5v-3h-1q1 -35 -6 -71q-4 -19 -11 -40q-29 -86 -97 -148.5t-158 -85.5l-1 -455l593 -1h6q9 1 17 6q12 7 17 19l95 409h-1q6 19 -4 36z" />
    <glyph glyph-name="uniE635" unicode="&#xe635;" 
d="M819 -212h-614q-85 0 -145 60t-60 145v614q0 85 60 145t145 60h614q85 0 145 -60t60 -145v-614q0 -85 -60 -145t-145 -60zM922 607q0 43 -30 73t-73 30h-614q-43 0 -73 -30t-30 -73v-614q0 -43 30 -73t73 -30h614q43 0 73 30t30 73v614zM409 504l308 -204l-308 -204v408z
" />
    <glyph glyph-name="uniE636" unicode="&#xe636;" 
d="M418.5 -72q-8.5 0 -14.5 6t-6 14.5t6 14.5l337 337l-337 336q-6 6 -6 14.5t6 14.5t14.5 6t14.5 -6l351 -351q6 -6 6 -14.5t-6 -14.5l-351 -351q-6 -6 -14.5 -6z" />
    <glyph glyph-name="uniE637" unicode="&#xe637;" 
d="M235 -56l277 277l277 -277l79 79l-277 277l277 277l-79 79l-277 -277l-277 277l-79 -79l277 -277l-277 -277z" />
    <glyph glyph-name="uniE638" unicode="&#xe638;" 
d="M512 798q-104 0 -198 -40.5t-162.5 -109t-109 -162.5t-40.5 -197.5t40.5 -197.5t109 -162.5t162.5 -109t197.5 -40.5t198 40.5t162.5 109t108.5 162.5t40.5 197.5t-40.5 197.5t-108.5 162.5t-162.5 109t-197.5 40.5zM512 -151q-89 0 -170.5 35t-140.5 94t-93.5 140.5
t-34.5 170.5t34.5 170t93.5 139.5t140.5 93.5t170.5 35t170 -35t140 -93.5t94 -139.5t35 -170t-35 -170.5t-94 -140.5t-140 -94t-170 -35zM381 310q4 -8 17.5 -31.5t19.5 -36.5l31 -58q54 112 93 170q27 41 57 75t53 53.5t41.5 32.5t28.5 17l10 5q-1 -9 -2.5 -23t-4 -44
t-1.5 -44q0 -16 4.5 -35.5t7.5 -31.5l4 -11q-9 -6 -25.5 -16.5t-60 -46t-79.5 -74.5q-23 -24 -52.5 -65t-48.5 -69l-18 -28q-58 70 -103 106q-23 17 -50.5 35t-43.5 27l-17 9q50 33 75.5 49.5t63.5 34.5z" />
    <glyph glyph-name="uniE639" unicode="&#xe639;" 
d="M959.5 407q-12.5 36 -49.5 45l-218 54l-121 193q-20 33 -58.5 33t-58.5 -33l-121 -193l-219 -54q-37 -9 -49 -45t12 -65l144 -178l-13 -223q-3 -38 28 -60q18 -13 41 -13q12 0 24 4l211 81l212 -81q11 -4 24 -4q29 0 49.5 20t20.5 49q0 5 -1 11l-14 216l145 178
q24 29 11.5 65zM285 96l293 253q-11 5 -34 13t-103 25.5t-171 26.5q10 1 28 3.5t73 5.5t110 2.5t131.5 -9t144.5 -25.5l-307 -229q4 -3 18.5 -8t97 -19t212.5 -27q-90 -31 -226 -37q-138 -6 -267 25z" />
    <glyph glyph-name="uniE63A" unicode="&#xe63a;" 
d="M339 244.5q-57 -12.5 -90.5 -57.5t-24 -97t56.5 -79.5t104 -15t90.5 57.5t24 97t-56.5 79.5t-104 15zM331.5 57.5q-17.5 -9.5 -35 -5t-25 21t-0.5 34.5t24.5 27.5t35.5 5t25 -20.5t0 -34.5t-24.5 -28zM387 129q-8 -5 -15.5 -2.5t-11 10.5t-0.5 17t11 13.5t16 2.5
t11.5 -10t0 -17t-11.5 -14zM710 750q-14 0 -24.5 -10.5t-10.5 -26t10.5 -26t24.5 -10.5q96 0 164 -70.5t68 -170.5q0 -15 10 -26t24.5 -11t25 11t10.5 26q0 130 -88.5 222t-213.5 92zM716 604q-14 3 -26.5 -5t-15.5 -23t5 -27.5t23 -15.5q38 -8 65.5 -37t35.5 -69
q3 -15 15.5 -23.5t26.5 -5.5t22 16t5 28q-12 61 -54.5 105.5t-101.5 56.5zM748 296q-9 3 -12.5 5t-6.5 7.5t3 14.5q24 66 0 103q-25 36 -84 35.5t-135 -33.5q-26 -12 -24 6q0 2 1 5q25 84 -11 122q-40 43 -134 4t-187 -137q-70 -74 -108 -149.5t-38 -142.5q0 -82 60.5 -149
t154 -102t196.5 -35q95 0 180.5 29t141.5 74.5t88.5 98.5t32.5 103q0 54 -34.5 89.5t-83.5 51.5zM423.5 -73q-121.5 -13 -213 37.5t-99.5 134t72.5 151.5t202 80.5t213 -37.5t99.5 -133.5t-72.5 -151.5t-202 -81z" />
    <glyph glyph-name="uniE63B" unicode="&#xe63b;" 
d="M116 218q-25 -59 -28.5 -108.5t16.5 -59.5q14 -7 34.5 7.5t40.5 45.5q16 -66 76 -116q-31 -12 -48.5 -29t-17.5 -38q0 -33 46 -57t112 -24q58 0 102.5 19.5t53.5 48.5h9h10q9 -29 53 -48.5t103 -19.5q65 0 111 24t46 57q0 21 -17.5 38t-48.5 29q60 50 76 116
q21 -31 41 -45.5t34 -7.5q20 10 16.5 59.5t-28.5 108.5q-20 46 -44.5 78t-45.5 40q1 6 1 12q0 36 -18 64v4q0 17 -7 31q-5 125 -81.5 207t-200.5 82t-200.5 -82t-81.5 -207q-7 -14 -7 -31v-4q-18 -28 -18 -64q0 -6 1 -12q-21 -8 -45.5 -40t-44.5 -78z" />
    <glyph glyph-name="uniE63C" unicode="&#xe63c;" 
d="M889 377l-365 365q-6 6 -13.5 6t-13.5 -6l-365 -365q-12 -12 -11.5 -29.5t12.5 -29.5t29 -12t29 12l278 278v-604q0 -17 12 -29t29 -12t29.5 12t12.5 29v604l278 -278q12 -12 29 -12t29 12t12.5 29.5t-11.5 29.5z" />
    <glyph glyph-name="uniE63D" unicode="&#xe63d;" horiz-adv-x="1104" 
d="M643 371h-255l98 93l-22 22l-141 -131l141 -128l22 23l-97 89h254q16 0 31 -1.5t36 -8t36.5 -17.5t26.5 -32t11 -50q0 -16 16 -16q5 0 10.5 6t5.5 10q0 65 -47 103t-126 38z" />
    <glyph glyph-name="uniE63E" unicode="&#xe63e;" 
d="M892 721q3 -7 -0.5 -13t-15.5 -15.5t-13 -10.5q-7 -7 -19 -22t-22 -20q-4 0 -8.5 6t-6.5 7q0 2 3 5t2 7q29 19 47 51q2 0 7.5 3t8.5 4t8 1t9 -3zM914 614q8 -14 -5 -27q-18 1 -38.5 -18t-36.5 -21q-5 4 -5.5 8.5t3 9t7.5 8t11 8.5t9 7q4 3 10 8.5t9 8t9.5 6.5t11.5 4z
M912 482q-12 0 -39.5 -12t-41.5 -5q0 10 6 17q14 15 59 21q41 6 38 -12q-1 -10 -22 -9zM946 394q-3 -1 -4 -7q-7 0 -22 -3.5t-34 -8.5t-27 -6q-11 -3 -18 1.5t-5 16.5q8 2 26.5 7.5t32 9t28.5 2t23 -11.5zM954 253q-4 -6 -11 -6t-18 3t-16 3q-7 1 -19.5 -0.5t-22.5 -1
t-18 3.5q-1 7 -1.5 8.5t2 6t3.5 7.5q26 6 61 0t40 -24zM959 143q-1 -1 -5.5 -2.5t-5.5 -3.5q-7 4 -33 8.5t-43.5 13t-13.5 23.5q4 5 8 5.5t7.5 -1t8.5 -4.5t8 -5q8 -3 31 -8.5t32 -9.5q0 -4 3 -8t3 -8zM929 -12q-7 -7 -20 5q-30 7 -72 40q0 9 9 19q4 0 8 -1.5t6.5 -3.5
t7 -5.5t5.5 -4.5q6 -5 20.5 -13t23.5 -16t12 -20zM738 631q4 -6 6 -13t1.5 -12t-1 -14t-0.5 -13q1 -34 10 -112t9 -120q0 -27 5 -92.5t2 -94.5q-2 -13 -12 -23q13 -12 15.5 -37t-0.5 -48q-15 -29 -46 -19q-11 11 -66 44q-6 4 -26 17.5t-29 18.5q-4 2 -13 5t-13 5l-15 10
q-12 8 -17 10t-16 4.5t-23 1.5q-4 3 -9.5 4.5t-15 2.5t-12.5 1q1 -8 -1 -17t-4.5 -14t-8 -14t-7.5 -13q5 -8 24.5 -19.5t19.5 -24.5q1 -10 -13 -20t-17 -19q2 -4 5.5 -8t7 -6.5t9.5 -5.5t8 -5q12 -17 15.5 -48.5t-4.5 -52.5q-49 -18 -134 -12q-6 0 -18.5 -1.5t-15.5 -0.5
q-5 1 -12 11t-8 18q-1 4 0.5 11.5t0.5 10.5q0 3 -2 9.5t-3 8.5q-3 22 -5.5 68.5t-5.5 67.5q0 3 -4 5.5t-3 6.5q9 41 0 71q-22 -3 -34.5 7t2.5 25q8 -5 47 -2.5t46 2.5q3 0 9 -2.5t9 -2.5q5 -1 14 0.5t13 1.5q12 -1 42 -5t42.5 -3.5t42.5 4.5q-21 156 -17 254q-2 2 -8 5.5
t-8 6.5q-106 4 -214 -10q-16 -87 -17 -169q0 -7 3 -35.5t-1 -34.5q-6 -2 -15 -11t-21 -9q-28 -1 -66 7.5t-62 19.5q-28 22 -35.5 58t3.5 71.5t33 65.5q17 21 53 38t69 17q3 0 12 -1t14 0q4 1 7 7.5t6 7.5q40 -3 114 3.5t115 3.5q5 4 18 6t17 4q5 2 10.5 6t12.5 10t11 9
q73 55 100 73q4 3 12.5 6.5t11.5 5.5t12.5 12.5t18 14t20.5 0.5zM545 467q-7 -35 -7 -75.5t2 -62t9.5 -76t8.5 -66.5q11 -12 12 -20q10 -6 32 -19.5t39 -23t34 -16.5q2 11 1.5 15.5t-2.5 17t-2 18.5q-1 9 -2 46t-5 55q2 2 2 8t1 8q-9 177 -10 275h-3q-61 -41 -110 -84z
M717 509q4 0 5 1.5t0.5 6.5t-0.5 6q-5 0 -6.5 -5.5t1.5 -8.5zM235 421q13 2 15 4q-2 12 -12 11q0 -2 -0.5 -6.5t-2.5 -8.5zM203 375q22 19 15 27q-1 -3 -7.5 -11t-7.5 -16zM184 296q10 8 24.5 32t26.5 32q2 0 4 -1t4 -1q10 27 -1 33q-5 -8 -15.5 -22.5t-16.5 -23.5
t-13.5 -23t-12.5 -26zM164 360q5 2 8 14q-5 -4 -8 -14zM727 340q4 0 11 3q-1 3 -0.5 7t0 7t-3.5 3q0 -3 -4 -10t-3 -10zM135 314q14 5 25 44q-22 -26 -25 -44zM167 320q8 5 15 16.5t4 16.5q-3 -5 -10 -15.5t-9 -17.5zM196 267q6 0 5 -3q-4 -10 -14 -26t-11 -18q7 -1 12 4
t10 16t6 13q21 35 26 43q-1 4 2 8.5t3 8.5q2 0 4.5 1.5t3.5 1.5q0 1 0.5 6t-0.5 6.5t-5 1.5q-26 -31 -42 -63zM148 286q11 7 17 27q-10 -6 -17 -27zM98 274q1 -14 8 -19q3 6 10.5 17t12 20.5t4.5 18.5q0 -1 -4 -7.5t-5 -8t-4.5 -6.5t-6 -7t-7 -4.5t-8.5 -3.5zM695 269
q4 -1 5 2.5t0.5 8t-1.5 6.5h-5q-1 -3 0.5 -8t0.5 -9zM733 250h6q2 5 2.5 13.5t-0.5 12.5q-5 -4 -8 -12t0 -14zM741 172q2 2 2 6.5t-4 3.5v-2q-2 -7 2 -8zM328 118q0 -7 2 -32q13 17 42 76q-13 3 -20.5 -4.5t-13 -21t-10.5 -18.5zM401 160q-7 -9 -25.5 -40t-30.5 -46
q1 -3 -1 -9.5t1 -7.5q9 17 33 51t35 54q-4 1 -7 -0.5t-5 -1.5zM749 91q9 27 0 42q-15 -23 0 -42zM748 79q5 7 0 9q-6 -8 0 -9zM399 62q13 8 8 14q-6 -9 -8 -14zM436 72q-7 -11 -26 -35.5t-31.5 -44t-21.5 -40.5q-3 0 -7 -2.5t-7 -2.5q0 -7 0.5 -12t2 -11.5t5 -9t7.5 -1.5
q-9 14 4 33t13 26q10 6 23.5 29t27.5 38t31 8q1 2 1 4.5t-0.5 4.5t-1 3.5t-2.5 3t-3 2.5t-3.5 2.5t-3.5 2t-4 1.5t-4 1zM340 -28q4 3 7 7t6 11.5t4 9.5q-2 0 -6.5 1t-7.5 2.5t-3 4.5q4 10 3 12q-3 2 -8 2q1 -7 2 -25.5t3 -24.5zM391 -66q-2 -3 -11.5 -11.5t-10.5 -16.5
q3 0 25 -3q5 15 12.5 29t18.5 30.5t16 25.5q-2 1 -7.5 7t-10.5 6q-2 -5 -18.5 -28.5t-13.5 -38.5zM458 -33q-1 -2 -7.5 -9.5t-10.5 -13t-8 -13t-4 -14.5t5 -12q6 4 14.5 24t22.5 21q4 -3 4 -9t-1.5 -11t-5 -12t-4.5 -10q10 1 14.5 7.5t4 14t-2 20.5t-0.5 19q-2 1 -6.5 4.5
t-8 5t-6.5 0.5q3 0 1 -4.5t-1 -7.5z" />
    <glyph glyph-name="uniE63F" unicode="&#xe63f;" 
d="M602 507h-217l-37 -67h134l-32 -61l-22 39h-86l65 -120l-104 -202h82l65 124l62 -124h90l-109 205zM602 403h44v-307h112v411h-97zM855 507l-52 -104h45v-307h112v411h-105zM259 303l104 204h-299l45 -67h134l-27 -58l-18 35h-89l65 -116l-110 -205h90l62 127l62 -112
l42 80z" />
    <glyph glyph-name="uniE640" unicode="&#xe640;" 
d="M820.5 607.5q-83.5 83.5 -196 113.5t-225 0t-195.5 -113q-63 -63 -95.5 -144.5t-32.5 -164t32.5 -164t95 -144t144 -95t164.5 -32.5t164.5 32.5t143.5 95.5q84 83 113.5 195.5t0 224.5t-113 195.5zM776 36q-72 -72 -168 -97.5t-192 0t-168 97.5q-54 53 -81.5 123
t-27.5 140.5t27.5 140.5t81.5 124q72 71 168 96.5t192 0t168 -96.5q53 -54 81 -124t28 -140.5t-28 -140.5t-81 -123zM768 456q-8 8 -21 7.5t-21 -8.5l-271 -288l-144 142q-9 9 -22 8.5t-21 -8.5q-9 -9 -9 -21.5t9 -21.5l166 -164l1 -1h1q2 -2 5 -4l4 -2q5 -2 11 -2t12 3
q1 0 4 2t5 4l293 311q8 9 8 21.5t-10 21.5z" />
    <glyph glyph-name="uniE641" unicode="&#xe641;" 
d="M210 532h604v-41h-604v41zM210 395h604v-41h-604v41zM210 257h604v-41h-604v41zM299 -124v158q0 13 -9 22t-22 9h-130q-30 0 -51.5 21.5t-21.5 51.5v473q0 30 21.5 51t51.5 21h748q30 0 51 -21t21 -51v-473q0 -30 -21 -51.5t-51 -21.5h-355q-11 0 -20 -7zM138 642
q-13 0 -22.5 -9t-9.5 -22v-473q0 -13 9.5 -22.5t22.5 -9.5h130q30 0 51 -21t21 -51v-69l144 124q20 17 47 17h355q13 0 22.5 9.5t9.5 22.5v473q0 13 -9.5 22t-22.5 9h-748z" />
    <glyph glyph-name="uniE642" unicode="&#xe642;" 
d="M881 86q0 -78 -37 -105q-40 -28 -177 -31q-42 -1 -154 -1q-219 0 -275 11q-67 13 -84 58q-9 25 -9 68q0 46 18 105t53 119t79 111.5t102 83.5t116 32t116 -32t102 -83.5t79 -111.5t53 -119t18 -105zM514 472q-65 0 -110.5 -46t-45.5 -111t45.5 -111t110.5 -46t111 46
t46 111t-46 111t-111 46zM186 357q26 41 57.5 77t72 67.5t91.5 50t105 18.5t106 -19.5t93 -52t72 -68t52 -73.5q21 -33 53.5 -32t50.5 32q4 9 7 26.5t0 45t-14.5 56.5t-42 58.5t-76 52.5t-123.5 37.5t-178 14.5q-101 0 -179.5 -15t-124 -39t-76 -53.5t-41.5 -59t-13.5 -56.5
t1 -44.5t8.5 -23.5q14 -21 36.5 -25t39.5 4.5t23 20.5z" />
  </font>
</defs>
</svg>
